<?xml version="1.0" encoding="utf-8" standalone="no"?>
<!DOCTYPE svg PUBLIC "-//W3C//DTD SVG 1.1//EN"
  "http://www.w3.org/Graphics/SVG/1.1/DTD/svg11.dtd">
<!-- Created with matplotlib (https://matplotlib.org/) -->
<svg height="605.52pt" version="1.1" viewBox="0 0 1061.28 605.52" width="1061.28pt" xmlns="http://www.w3.org/2000/svg" xmlns:xlink="http://www.w3.org/1999/xlink">
 <defs>
  <style type="text/css">
*{stroke-linecap:butt;stroke-linejoin:round;}
  </style>
 </defs>
 <g id="figure_1">
  <g id="patch_1">
   <path d="M 0 605.52 
L 1061.28 605.52 
L 1061.28 0 
L 0 0 
z
" style="fill:#ffffff;"/>
  </g>
  <g id="axes_1">
   <g id="patch_2">
    <path d="M 132.66 538.9128 
L 955.152 538.9128 
L 955.152 72.6624 
L 132.66 72.6624 
z
" style="fill:#ffffff;"/>
   </g>
   <g id="matplotlib.axis_1">
    <g id="xtick_1">
     <g id="line2d_1">
      <defs>
       <path d="M 0 0 
L 0 3.5 
" id="mf6c1014ba1" style="stroke:#000000;stroke-width:0.8;"/>
      </defs>
      <g>
       <use style="stroke:#000000;stroke-width:0.8;" x="170.046" xlink:href="#mf6c1014ba1" y="538.9128"/>
      </g>
     </g>
     <g id="text_1">
      <!-- −2 -->
      <defs>
       <path d="M 10.59375 35.5 
L 73.1875 35.5 
L 73.1875 27.203125 
L 10.59375 27.203125 
z
" id="DejaVuSans-8722"/>
       <path d="M 19.1875 8.296875 
L 53.609375 8.296875 
L 53.609375 0 
L 7.328125 0 
L 7.328125 8.296875 
Q 12.9375 14.109375 22.625 23.890625 
Q 32.328125 33.6875 34.8125 36.53125 
Q 39.546875 41.84375 41.421875 45.53125 
Q 43.3125 49.21875 43.3125 52.78125 
Q 43.3125 58.59375 39.234375 62.25 
Q 35.15625 65.921875 28.609375 65.921875 
Q 23.96875 65.921875 18.8125 64.3125 
Q 13.671875 62.703125 7.8125 59.421875 
L 7.8125 69.390625 
Q 13.765625 71.78125 18.9375 73 
Q 24.125 74.21875 28.421875 74.21875 
Q 39.75 74.21875 46.484375 68.546875 
Q 53.21875 62.890625 53.21875 53.421875 
Q 53.21875 48.921875 51.53125 44.890625 
Q 49.859375 40.875 45.40625 35.40625 
Q 44.1875 33.984375 37.640625 27.21875 
Q 31.109375 20.453125 19.1875 8.296875 
z
" id="DejaVuSans-50"/>
      </defs>
      <g transform="translate(162.674906 553.511237)scale(0.1 -0.1)">
       <use xlink:href="#DejaVuSans-8722"/>
       <use x="83.789062" xlink:href="#DejaVuSans-50"/>
      </g>
     </g>
    </g>
    <g id="xtick_2">
     <g id="line2d_2">
      <g>
       <use style="stroke:#000000;stroke-width:0.8;" x="263.511" xlink:href="#mf6c1014ba1" y="538.9128"/>
      </g>
     </g>
     <g id="text_2">
      <!-- −1 -->
      <defs>
       <path d="M 12.40625 8.296875 
L 28.515625 8.296875 
L 28.515625 63.921875 
L 10.984375 60.40625 
L 10.984375 69.390625 
L 28.421875 72.90625 
L 38.28125 72.90625 
L 38.28125 8.296875 
L 54.390625 8.296875 
L 54.390625 0 
L 12.40625 0 
z
" id="DejaVuSans-49"/>
      </defs>
      <g transform="translate(256.139906 553.511237)scale(0.1 -0.1)">
       <use xlink:href="#DejaVuSans-8722"/>
       <use x="83.789062" xlink:href="#DejaVuSans-49"/>
      </g>
     </g>
    </g>
    <g id="xtick_3">
     <g id="line2d_3">
      <g>
       <use style="stroke:#000000;stroke-width:0.8;" x="356.976" xlink:href="#mf6c1014ba1" y="538.9128"/>
      </g>
     </g>
     <g id="text_3">
      <!-- 0 -->
      <defs>
       <path d="M 31.78125 66.40625 
Q 24.171875 66.40625 20.328125 58.90625 
Q 16.5 51.421875 16.5 36.375 
Q 16.5 21.390625 20.328125 13.890625 
Q 24.171875 6.390625 31.78125 6.390625 
Q 39.453125 6.390625 43.28125 13.890625 
Q 47.125 21.390625 47.125 36.375 
Q 47.125 51.421875 43.28125 58.90625 
Q 39.453125 66.40625 31.78125 66.40625 
z
M 31.78125 74.21875 
Q 44.046875 74.21875 50.515625 64.515625 
Q 56.984375 54.828125 56.984375 36.375 
Q 56.984375 17.96875 50.515625 8.265625 
Q 44.046875 -1.421875 31.78125 -1.421875 
Q 19.53125 -1.421875 13.0625 8.265625 
Q 6.59375 17.96875 6.59375 36.375 
Q 6.59375 54.828125 13.0625 64.515625 
Q 19.53125 74.21875 31.78125 74.21875 
z
" id="DejaVuSans-48"/>
      </defs>
      <g transform="translate(353.79475 553.511237)scale(0.1 -0.1)">
       <use xlink:href="#DejaVuSans-48"/>
      </g>
     </g>
    </g>
    <g id="xtick_4">
     <g id="line2d_4">
      <g>
       <use style="stroke:#000000;stroke-width:0.8;" x="450.441" xlink:href="#mf6c1014ba1" y="538.9128"/>
      </g>
     </g>
     <g id="text_4">
      <!-- 1 -->
      <g transform="translate(447.25975 553.511237)scale(0.1 -0.1)">
       <use xlink:href="#DejaVuSans-49"/>
      </g>
     </g>
    </g>
    <g id="xtick_5">
     <g id="line2d_5">
      <g>
       <use style="stroke:#000000;stroke-width:0.8;" x="543.906" xlink:href="#mf6c1014ba1" y="538.9128"/>
      </g>
     </g>
     <g id="text_5">
      <!-- 2 -->
      <g transform="translate(540.72475 553.511237)scale(0.1 -0.1)">
       <use xlink:href="#DejaVuSans-50"/>
      </g>
     </g>
    </g>
    <g id="xtick_6">
     <g id="line2d_6">
      <g>
       <use style="stroke:#000000;stroke-width:0.8;" x="637.371" xlink:href="#mf6c1014ba1" y="538.9128"/>
      </g>
     </g>
     <g id="text_6">
      <!-- 3 -->
      <defs>
       <path d="M 40.578125 39.3125 
Q 47.65625 37.796875 51.625 33 
Q 55.609375 28.21875 55.609375 21.1875 
Q 55.609375 10.40625 48.1875 4.484375 
Q 40.765625 -1.421875 27.09375 -1.421875 
Q 22.515625 -1.421875 17.65625 -0.515625 
Q 12.796875 0.390625 7.625 2.203125 
L 7.625 11.71875 
Q 11.71875 9.328125 16.59375 8.109375 
Q 21.484375 6.890625 26.8125 6.890625 
Q 36.078125 6.890625 40.9375 10.546875 
Q 45.796875 14.203125 45.796875 21.1875 
Q 45.796875 27.640625 41.28125 31.265625 
Q 36.765625 34.90625 28.71875 34.90625 
L 20.21875 34.90625 
L 20.21875 43.015625 
L 29.109375 43.015625 
Q 36.375 43.015625 40.234375 45.921875 
Q 44.09375 48.828125 44.09375 54.296875 
Q 44.09375 59.90625 40.109375 62.90625 
Q 36.140625 65.921875 28.71875 65.921875 
Q 24.65625 65.921875 20.015625 65.03125 
Q 15.375 64.15625 9.8125 62.3125 
L 9.8125 71.09375 
Q 15.4375 72.65625 20.34375 73.4375 
Q 25.25 74.21875 29.59375 74.21875 
Q 40.828125 74.21875 47.359375 69.109375 
Q 53.90625 64.015625 53.90625 55.328125 
Q 53.90625 49.265625 50.4375 45.09375 
Q 46.96875 40.921875 40.578125 39.3125 
z
" id="DejaVuSans-51"/>
      </defs>
      <g transform="translate(634.18975 553.511237)scale(0.1 -0.1)">
       <use xlink:href="#DejaVuSans-51"/>
      </g>
     </g>
    </g>
    <g id="xtick_7">
     <g id="line2d_7">
      <g>
       <use style="stroke:#000000;stroke-width:0.8;" x="730.836" xlink:href="#mf6c1014ba1" y="538.9128"/>
      </g>
     </g>
     <g id="text_7">
      <!-- 4 -->
      <defs>
       <path d="M 37.796875 64.3125 
L 12.890625 25.390625 
L 37.796875 25.390625 
z
M 35.203125 72.90625 
L 47.609375 72.90625 
L 47.609375 25.390625 
L 58.015625 25.390625 
L 58.015625 17.1875 
L 47.609375 17.1875 
L 47.609375 0 
L 37.796875 0 
L 37.796875 17.1875 
L 4.890625 17.1875 
L 4.890625 26.703125 
z
" id="DejaVuSans-52"/>
      </defs>
      <g transform="translate(727.65475 553.511237)scale(0.1 -0.1)">
       <use xlink:href="#DejaVuSans-52"/>
      </g>
     </g>
    </g>
    <g id="xtick_8">
     <g id="line2d_8">
      <g>
       <use style="stroke:#000000;stroke-width:0.8;" x="824.301" xlink:href="#mf6c1014ba1" y="538.9128"/>
      </g>
     </g>
     <g id="text_8">
      <!-- 5 -->
      <defs>
       <path d="M 10.796875 72.90625 
L 49.515625 72.90625 
L 49.515625 64.59375 
L 19.828125 64.59375 
L 19.828125 46.734375 
Q 21.96875 47.46875 24.109375 47.828125 
Q 26.265625 48.1875 28.421875 48.1875 
Q 40.625 48.1875 47.75 41.5 
Q 54.890625 34.8125 54.890625 23.390625 
Q 54.890625 11.625 47.5625 5.09375 
Q 40.234375 -1.421875 26.90625 -1.421875 
Q 22.3125 -1.421875 17.546875 -0.640625 
Q 12.796875 0.140625 7.71875 1.703125 
L 7.71875 11.625 
Q 12.109375 9.234375 16.796875 8.0625 
Q 21.484375 6.890625 26.703125 6.890625 
Q 35.15625 6.890625 40.078125 11.328125 
Q 45.015625 15.765625 45.015625 23.390625 
Q 45.015625 31 40.078125 35.4375 
Q 35.15625 39.890625 26.703125 39.890625 
Q 22.75 39.890625 18.8125 39.015625 
Q 14.890625 38.140625 10.796875 36.28125 
z
" id="DejaVuSans-53"/>
      </defs>
      <g transform="translate(821.11975 553.511237)scale(0.1 -0.1)">
       <use xlink:href="#DejaVuSans-53"/>
      </g>
     </g>
    </g>
    <g id="xtick_9">
     <g id="line2d_9">
      <g>
       <use style="stroke:#000000;stroke-width:0.8;" x="917.766" xlink:href="#mf6c1014ba1" y="538.9128"/>
      </g>
     </g>
     <g id="text_9">
      <!-- 6 -->
      <defs>
       <path d="M 33.015625 40.375 
Q 26.375 40.375 22.484375 35.828125 
Q 18.609375 31.296875 18.609375 23.390625 
Q 18.609375 15.53125 22.484375 10.953125 
Q 26.375 6.390625 33.015625 6.390625 
Q 39.65625 6.390625 43.53125 10.953125 
Q 47.40625 15.53125 47.40625 23.390625 
Q 47.40625 31.296875 43.53125 35.828125 
Q 39.65625 40.375 33.015625 40.375 
z
M 52.59375 71.296875 
L 52.59375 62.3125 
Q 48.875 64.0625 45.09375 64.984375 
Q 41.3125 65.921875 37.59375 65.921875 
Q 27.828125 65.921875 22.671875 59.328125 
Q 17.53125 52.734375 16.796875 39.40625 
Q 19.671875 43.65625 24.015625 45.921875 
Q 28.375 48.1875 33.59375 48.1875 
Q 44.578125 48.1875 50.953125 41.515625 
Q 57.328125 34.859375 57.328125 23.390625 
Q 57.328125 12.15625 50.6875 5.359375 
Q 44.046875 -1.421875 33.015625 -1.421875 
Q 20.359375 -1.421875 13.671875 8.265625 
Q 6.984375 17.96875 6.984375 36.375 
Q 6.984375 53.65625 15.1875 63.9375 
Q 23.390625 74.21875 37.203125 74.21875 
Q 40.921875 74.21875 44.703125 73.484375 
Q 48.484375 72.75 52.59375 71.296875 
z
" id="DejaVuSans-54"/>
      </defs>
      <g transform="translate(914.58475 553.511237)scale(0.1 -0.1)">
       <use xlink:href="#DejaVuSans-54"/>
      </g>
     </g>
    </g>
    <g id="text_10">
     <!-- X -->
     <defs>
      <path d="M 6.296875 72.90625 
L 16.890625 72.90625 
L 35.015625 45.796875 
L 53.21875 72.90625 
L 63.8125 72.90625 
L 40.375 37.890625 
L 65.375 0 
L 54.78125 0 
L 34.28125 31 
L 13.625 0 
L 2.984375 0 
L 29 38.921875 
z
" id="DejaVuSans-88"/>
     </defs>
     <g transform="translate(540.481 567.189363)scale(0.1 -0.1)">
      <use xlink:href="#DejaVuSans-88"/>
     </g>
    </g>
   </g>
   <g id="matplotlib.axis_2">
    <g id="ytick_1">
     <g id="line2d_10">
      <defs>
       <path d="M 0 0 
L -3.5 0 
" id="m9079084c27" style="stroke:#000000;stroke-width:0.8;"/>
      </defs>
      <g>
       <use style="stroke:#000000;stroke-width:0.8;" x="132.66" xlink:href="#m9079084c27" y="538.9128"/>
      </g>
     </g>
     <g id="text_11">
      <!-- −2.0 -->
      <defs>
       <path d="M 10.6875 12.40625 
L 21 12.40625 
L 21 0 
L 10.6875 0 
z
" id="DejaVuSans-46"/>
      </defs>
      <g transform="translate(101.377187 542.712019)scale(0.1 -0.1)">
       <use xlink:href="#DejaVuSans-8722"/>
       <use x="83.789062" xlink:href="#DejaVuSans-50"/>
       <use x="147.412109" xlink:href="#DejaVuSans-46"/>
       <use x="179.199219" xlink:href="#DejaVuSans-48"/>
      </g>
     </g>
    </g>
    <g id="ytick_2">
     <g id="line2d_11">
      <g>
       <use style="stroke:#000000;stroke-width:0.8;" x="132.66" xlink:href="#m9079084c27" y="480.6315"/>
      </g>
     </g>
     <g id="text_12">
      <!-- −1.5 -->
      <g transform="translate(101.377187 484.430719)scale(0.1 -0.1)">
       <use xlink:href="#DejaVuSans-8722"/>
       <use x="83.789062" xlink:href="#DejaVuSans-49"/>
       <use x="147.412109" xlink:href="#DejaVuSans-46"/>
       <use x="179.199219" xlink:href="#DejaVuSans-53"/>
      </g>
     </g>
    </g>
    <g id="ytick_3">
     <g id="line2d_12">
      <g>
       <use style="stroke:#000000;stroke-width:0.8;" x="132.66" xlink:href="#m9079084c27" y="422.3502"/>
      </g>
     </g>
     <g id="text_13">
      <!-- −1.0 -->
      <g transform="translate(101.377187 426.149419)scale(0.1 -0.1)">
       <use xlink:href="#DejaVuSans-8722"/>
       <use x="83.789062" xlink:href="#DejaVuSans-49"/>
       <use x="147.412109" xlink:href="#DejaVuSans-46"/>
       <use x="179.199219" xlink:href="#DejaVuSans-48"/>
      </g>
     </g>
    </g>
    <g id="ytick_4">
     <g id="line2d_13">
      <g>
       <use style="stroke:#000000;stroke-width:0.8;" x="132.66" xlink:href="#m9079084c27" y="364.0689"/>
      </g>
     </g>
     <g id="text_14">
      <!-- −0.5 -->
      <g transform="translate(101.377187 367.868119)scale(0.1 -0.1)">
       <use xlink:href="#DejaVuSans-8722"/>
       <use x="83.789062" xlink:href="#DejaVuSans-48"/>
       <use x="147.412109" xlink:href="#DejaVuSans-46"/>
       <use x="179.199219" xlink:href="#DejaVuSans-53"/>
      </g>
     </g>
    </g>
    <g id="ytick_5">
     <g id="line2d_14">
      <g>
       <use style="stroke:#000000;stroke-width:0.8;" x="132.66" xlink:href="#m9079084c27" y="305.7876"/>
      </g>
     </g>
     <g id="text_15">
      <!-- 0.0 -->
      <g transform="translate(109.756875 309.586819)scale(0.1 -0.1)">
       <use xlink:href="#DejaVuSans-48"/>
       <use x="63.623047" xlink:href="#DejaVuSans-46"/>
       <use x="95.410156" xlink:href="#DejaVuSans-48"/>
      </g>
     </g>
    </g>
    <g id="ytick_6">
     <g id="line2d_15">
      <g>
       <use style="stroke:#000000;stroke-width:0.8;" x="132.66" xlink:href="#m9079084c27" y="247.5063"/>
      </g>
     </g>
     <g id="text_16">
      <!-- 0.5 -->
      <g transform="translate(109.756875 251.305519)scale(0.1 -0.1)">
       <use xlink:href="#DejaVuSans-48"/>
       <use x="63.623047" xlink:href="#DejaVuSans-46"/>
       <use x="95.410156" xlink:href="#DejaVuSans-53"/>
      </g>
     </g>
    </g>
    <g id="ytick_7">
     <g id="line2d_16">
      <g>
       <use style="stroke:#000000;stroke-width:0.8;" x="132.66" xlink:href="#m9079084c27" y="189.225"/>
      </g>
     </g>
     <g id="text_17">
      <!-- 1.0 -->
      <g transform="translate(109.756875 193.024219)scale(0.1 -0.1)">
       <use xlink:href="#DejaVuSans-49"/>
       <use x="63.623047" xlink:href="#DejaVuSans-46"/>
       <use x="95.410156" xlink:href="#DejaVuSans-48"/>
      </g>
     </g>
    </g>
    <g id="ytick_8">
     <g id="line2d_17">
      <g>
       <use style="stroke:#000000;stroke-width:0.8;" x="132.66" xlink:href="#m9079084c27" y="130.9437"/>
      </g>
     </g>
     <g id="text_18">
      <!-- 1.5 -->
      <g transform="translate(109.756875 134.742919)scale(0.1 -0.1)">
       <use xlink:href="#DejaVuSans-49"/>
       <use x="63.623047" xlink:href="#DejaVuSans-46"/>
       <use x="95.410156" xlink:href="#DejaVuSans-53"/>
      </g>
     </g>
    </g>
    <g id="ytick_9">
     <g id="line2d_18">
      <g>
       <use style="stroke:#000000;stroke-width:0.8;" x="132.66" xlink:href="#m9079084c27" y="72.6624"/>
      </g>
     </g>
     <g id="text_19">
      <!-- 2.0 -->
      <g transform="translate(109.756875 76.461619)scale(0.1 -0.1)">
       <use xlink:href="#DejaVuSans-50"/>
       <use x="63.623047" xlink:href="#DejaVuSans-46"/>
       <use x="95.410156" xlink:href="#DejaVuSans-48"/>
      </g>
     </g>
    </g>
    <g id="text_20">
     <!-- Y -->
     <defs>
      <path d="M -0.203125 72.90625 
L 10.40625 72.90625 
L 30.609375 42.921875 
L 50.6875 72.90625 
L 61.28125 72.90625 
L 35.5 34.71875 
L 35.5 0 
L 25.59375 0 
L 25.59375 34.71875 
z
" id="DejaVuSans-89"/>
     </defs>
     <g transform="translate(95.2975 308.841506)rotate(-90)scale(0.1 -0.1)">
      <use xlink:href="#DejaVuSans-89"/>
     </g>
    </g>
   </g>
   <g id="line2d_19">
    <defs>
     <path d="M 0 1.5 
C 0.397805 1.5 0.77937 1.341951 1.06066 1.06066 
C 1.341951 0.77937 1.5 0.397805 1.5 0 
C 1.5 -0.397805 1.341951 -0.77937 1.06066 -1.06066 
C 0.77937 -1.341951 0.397805 -1.5 0 -1.5 
C -0.397805 -1.5 -0.77937 -1.341951 -1.06066 -1.06066 
C -1.341951 -0.77937 -1.5 -0.397805 -1.5 0 
C -1.5 0.397805 -1.341951 0.77937 -1.06066 1.06066 
C -0.77937 1.341951 -0.397805 1.5 0 1.5 
z
" id="m1f04e5dff1" style="stroke:#1f77b4;"/>
    </defs>
    <g clip-path="url(#p67a90cc172)">
     <use style="fill:#1f77b4;stroke:#1f77b4;" x="356.976" xlink:href="#m1f04e5dff1" y="305.7876"/>
     <use style="fill:#1f77b4;stroke:#1f77b4;" x="450.441" xlink:href="#m1f04e5dff1" y="212.53752"/>
     <use style="fill:#1f77b4;stroke:#1f77b4;" x="543.906" xlink:href="#m1f04e5dff1" y="200.88126"/>
     <use style="fill:#1f77b4;stroke:#1f77b4;" x="637.371" xlink:href="#m1f04e5dff1" y="294.13134"/>
     <use style="fill:#1f77b4;stroke:#1f77b4;" x="730.836" xlink:href="#m1f04e5dff1" y="399.03768"/>
     <use style="fill:#1f77b4;stroke:#1f77b4;" x="824.301" xlink:href="#m1f04e5dff1" y="422.3502"/>
    </g>
   </g>
   <g id="line2d_20">
    <path clip-path="url(#p67a90cc172)" d="M 264.954263 606.52 
L 268.231455 591.971353 
L 275.784182 560.057836 
L 283.336909 529.727987 
L 290.889636 500.949685 
L 298.442364 473.690809 
L 305.995091 447.919241 
L 313.547818 423.602859 
L 321.100545 400.709544 
L 328.653273 379.207175 
L 336.206 359.063631 
L 343.758727 340.246793 
L 351.311455 322.72454 
L 358.864182 306.464753 
L 366.416909 291.43531 
L 373.969636 277.604091 
L 381.522364 264.938977 
L 389.075091 253.407847 
L 396.627818 242.978581 
L 404.180545 233.619058 
L 411.733273 225.297159 
L 419.286 217.980763 
L 426.838727 211.637749 
L 434.391455 206.235998 
L 441.944182 201.743389 
L 449.496909 198.127802 
L 457.049636 195.357117 
L 464.602364 193.399214 
L 472.155091 192.221972 
L 479.707818 191.79327 
L 487.260545 192.08099 
L 494.813273 193.05301 
L 502.366 194.67721 
L 509.918727 196.921471 
L 517.471455 199.753671 
L 525.024182 203.14169 
L 532.576909 207.053409 
L 540.129636 211.456707 
L 547.682364 216.319463 
L 555.235091 221.609558 
L 562.787818 227.294871 
L 570.340545 233.343282 
L 577.893273 239.722671 
L 585.446 246.400918 
L 592.998727 253.345901 
L 600.551455 260.525502 
L 608.104182 267.907599 
L 615.656909 275.460073 
L 623.209636 283.150803 
L 630.762364 290.947668 
L 638.315091 298.81855 
L 645.867818 306.731327 
L 653.420545 314.653879 
L 660.973273 322.554087 
L 668.526 330.399828 
L 676.078727 338.158985 
L 683.631455 345.799435 
L 691.184182 353.28906 
L 698.736909 360.595738 
L 706.289636 367.687349 
L 713.842364 374.531774 
L 721.395091 381.096892 
L 728.947818 387.350582 
L 736.500545 393.260725 
L 744.053273 398.7952 
L 751.606 403.921887 
L 759.158727 408.608665 
L 766.711455 412.823415 
L 774.264182 416.534016 
L 781.816909 419.708348 
L 789.369636 422.314291 
L 796.922364 424.319724 
L 804.475091 425.692527 
L 812.027818 426.40058 
L 819.580545 426.411762 
L 827.133273 425.693955 
L 834.686 424.215036 
L 842.238727 421.942886 
L 849.791455 418.845385 
L 857.344182 414.890412 
L 864.896909 410.045847 
L 872.449636 404.27957 
L 880.002364 397.559461 
L 887.555091 389.853399 
L 895.107818 381.129264 
L 902.660545 371.354936 
L 910.213273 360.498295 
L 917.766 348.52722 
" style="fill:none;stroke:#ff7f0e;stroke-linecap:square;stroke-width:5;"/>
   </g>
   <g id="line2d_21">
    <path clip-path="url(#p67a90cc172)" d="M 170.046 531.254555 
L 177.598727 523.896834 
L 185.151455 516.304104 
L 192.704182 508.482996 
L 200.256909 500.441164 
L 207.809636 492.187208 
L 215.362364 483.730623 
L 222.915091 475.081767 
L 230.467818 466.251843 
L 238.020545 457.252886 
L 245.573273 448.097765 
L 253.126 438.800191 
L 260.678727 429.374727 
L 268.231455 419.836798 
L 275.784182 410.202713 
L 283.336909 400.489672 
L 290.889636 390.715788 
L 298.442364 380.900096 
L 305.995091 371.062568 
L 313.547818 361.224119 
L 321.100545 351.406614 
L 328.653273 341.632867 
L 336.206 331.926641 
L 343.758727 322.312635 
L 351.311455 312.81647 
L 358.864182 303.464666 
L 366.416909 294.284612 
L 373.969636 285.304523 
L 381.522364 276.553395 
L 389.075091 268.060936 
L 396.627818 259.8575 
L 404.180545 251.973992 
L 411.733273 244.441769 
L 419.286 237.292523 
L 426.838727 230.558136 
L 434.391455 224.270532 
L 441.944182 218.461498 
L 449.496909 213.162489 
L 457.049636 208.404403 
L 464.602364 204.217346 
L 472.155091 200.630361 
L 479.707818 197.671144 
L 487.260545 195.365721 
L 494.813273 193.738121 
L 502.366 192.810009 
L 509.918727 192.600306 
L 517.471455 193.124791 
L 525.024182 194.395675 
L 532.576909 196.421175 
L 540.129636 199.205064 
L 547.682364 202.746228 
L 555.235091 207.038208 
L 562.787818 212.068764 
L 570.340545 217.819442 
L 577.893273 224.265171 
L 585.446 231.373885 
L 592.998727 239.1062 
L 600.551455 247.415142 
L 608.104182 256.24595 
L 615.656909 265.535969 
L 623.209636 275.214647 
L 630.762364 285.203663 
L 638.315091 295.417202 
L 645.867818 305.762409 
L 653.420545 316.140036 
L 660.973273 326.445327 
L 668.526 336.569161 
L 676.078727 346.39949 
L 683.631455 355.823114 
L 691.184182 364.72783 
L 698.736909 373.005 
L 706.289636 380.552575 
L 713.842364 387.27865 
L 721.395091 393.105573 
L 728.947818 397.97469 
L 736.500545 401.851777 
L 744.053273 404.733222 
L 751.606 406.653045 
L 759.158727 407.6908 
L 766.711455 407.980473 
L 774.264182 407.720431 
L 781.816909 407.184536 
L 789.369636 406.734494 
L 796.922364 406.833563 
L 804.475091 408.06171 
L 812.027818 411.132331 
L 819.580545 416.910659 
L 827.133273 426.433974 
L 834.686 440.933754 
L 842.238727 461.8599 
L 849.791455 490.907174 
L 857.344182 530.044015 
L 864.896909 581.543879 
L 867.734618 606.52 
" style="fill:none;stroke:#2ca02c;stroke-dasharray:18.5,8;stroke-dashoffset:0;stroke-width:5;"/>
   </g>
   <g id="patch_3">
    <path d="M 132.66 538.9128 
L 132.66 72.6624 
" style="fill:none;stroke:#000000;stroke-linecap:square;stroke-linejoin:miter;stroke-width:0.8;"/>
   </g>
   <g id="patch_4">
    <path d="M 955.152 538.9128 
L 955.152 72.6624 
" style="fill:none;stroke:#000000;stroke-linecap:square;stroke-linejoin:miter;stroke-width:0.8;"/>
   </g>
   <g id="patch_5">
    <path d="M 132.66 538.9128 
L 955.152 538.9128 
" style="fill:none;stroke:#000000;stroke-linecap:square;stroke-linejoin:miter;stroke-width:0.8;"/>
   </g>
   <g id="patch_6">
    <path d="M 132.66 72.6624 
L 955.152 72.6624 
" style="fill:none;stroke:#000000;stroke-linecap:square;stroke-linejoin:miter;stroke-width:0.8;"/>
   </g>
  </g>
 </g>
 <defs>
  <clipPath id="p67a90cc172">
   <rect height="466.2504" width="822.492" x="132.66" y="72.6624"/>
  </clipPath>
 </defs>
</svg>
