<svg version="1.1" viewBox="0.0 0.0 818.2703412073491 441.54330708661416" fill="none" stroke="none" stroke-linecap="square" stroke-miterlimit="10" xmlns:xlink="http://www.w3.org/1999/xlink" xmlns="http://www.w3.org/2000/svg"><clipPath id="p.0"><path d="m0 0l818.2703 0l0 441.5433l-818.2703 0l0 -441.5433z" clip-rule="nonzero"/></clipPath><g clip-path="url(#p.0)"><path fill="#000000" fill-opacity="0.0" d="m0 0l818.2703 0l0 441.5433l-818.2703 0z" fill-rule="evenodd"/><path fill="#000000" fill-opacity="0.0" d="m29.610239 403.4882c30.353067 -45.319763 124.29218 -250.23753 182.1184 -271.91864c57.826233 -21.681099 114.98877 157.18942 164.8389 141.83203c49.85013 -15.357391 90.83713 -254.90465 134.26181 -233.97638c43.424744 20.928257 79.98114 329.43307 126.28638 359.54593c46.305298 30.112854 126.28766 -149.05731 151.54523 -178.86877" fill-rule="evenodd"/><path stroke="#232f7d" stroke-width="12.0" stroke-linejoin="round" stroke-linecap="butt" d="m29.610239 403.4882c30.353067 -45.319763 124.29218 -250.23753 182.1184 -271.91864c57.826233 -21.681099 114.98877 157.18942 164.8389 141.83203c49.85013 -15.357391 90.83713 -254.90465 134.26181 -233.97638c43.424744 20.928257 79.98114 329.43307 126.28638 359.54593c46.305298 30.112854 126.28766 -149.05731 151.54523 -178.86877" fill-rule="evenodd"/></g></svg>